name analog
datacolumns 19
datarows 27
range 0.0 0.013000000000000001
endheader
time	ground_force_vx	ground_force_vy	ground_force_vz	ground_force_px	ground_force_py	ground_force_pz	l_ground_force_vx	l_ground_force_vy	l_ground_force_vz	l_ground_force_px	l_ground_force_py	l_ground_force_pz	ground_torque_x	ground_torque_y	ground_torque_z	l_ground_torque_x	l_ground_torque_y	l_ground_torque_z
0.0	-0.0	-0.0	-0.0	-0.2417832463979721	20.954145431518555	-211.79440307617188	-2.306480407714844	-21.15444564819336	-289.7168884277344	-0.0	-0.0	-0.0	-0.0	-0.0	-0.0	86963.890625	16322.4560546875	-3025.09423828125
0.0005	-0.0	-0.0	-0.0	-0.3033567667007446	21.2155704498291	-214.02703857421875	-2.592902183532715	-21.045774459838867	-288.8282470703125	-0.0	-0.0	-0.0	-0.0	-0.0	-0.0	86514.3046875	16623.763671875	-3165.989013671875
0.001	-0.0	-0.0	-0.0	-0.091539166867733	21.411834716796875	-214.10841369628903	-2.7955448627471924	-20.866573333740234	-287.8800354003906	-0.0	-0.0	-0.0	-0.0	-0.0	-0.0	86718.7578125	16440.96875	-2988.137939453125
0.0015	-0.0	-0.0	-0.0	-0.199209451675415	21.213035583496094	-214.5608062744141	-2.3745150566101074	-21.28552627563477	-288.0579528808594	-0.0	-0.0	-0.0	-0.0	-0.0	-0.0	86445.7109375	16520.953125	-3143.900146484375
0.002	-0.0	-0.0	-0.0	-0.2676315307617187	21.81423568725586	-214.46340942382807	-2.572612762451172	-21.044761657714844	-287.17388916015625	-0.0	-0.0	-0.0	-0.0	-0.0	-0.0	86364.375	16566.828125	-3092.804931640625
0.0025	-0.0	-0.0	-0.0	-0.6259081959724426	21.83694839477539	-214.2961883544922	-2.795100212097168	-21.26026153564453	-285.77783203125	-0.0	-0.0	-0.0	-0.0	-0.0	-0.0	86063.140625	16671.630859375	-3107.04248046875
0.003	-0.0	-0.0	-0.0	-0.1118127256631851	21.74901580810547	-216.32034301757807	-2.684983968734741	-21.15245246887207	-285.517578125	-0.0	-0.0	-0.0	-0.0	-0.0	-0.0	85923.953125	16735.828125	-3173.4228515625
0.0035	-0.0	-0.0	-0.0	-0.200970783829689	22.12686920166016	-216.94175720214844	-2.6164793968200684	-21.33017349243164	-284.8194580078125	-0.0	-0.0	-0.0	-0.0	-0.0	-0.0	85455.2421875	16695.96875	-3092.3388671875
0.004	-0.0	-0.0	-0.0	-0.2683103382587433	22.1485652923584	-217.2056579589844	-2.971476554870605	-21.24169921875	-284.6491394042969	-0.0	-0.0	-0.0	-0.0	-0.0	-0.0	85713.1875	16720.203125	-3122.23291015625
0.0045000000000000005	-0.0	-0.0	-0.0	-0.4464814364910126	22.861305236816406	-217.8249969482422	-2.9497387409210205	-20.998794555664062	-284.03570556640625	-0.0	-0.0	-0.0	-0.0	-0.0	-0.0	85435.8359375	16924.275390625	-3240.95263671875
0.005	-0.0	-0.0	-0.0	-0.4684102237224579	22.438743591308597	-219.5008850097656	-2.9939355850219727	-20.667274475097656	-282.37701416015625	-0.0	-0.0	-0.0	-0.0	-0.0	-0.0	85531.734375	16936.1953125	-3225.820068359375
0.0055	-0.0	-0.0	-0.0	-0.7358747720718384	22.683643341064453	-219.32473754882807	-3.127126216888428	-20.77765274047852	-282.900390625	-0.0	-0.0	-0.0	-0.0	-0.0	-0.0	85324.015625	17161.564453125	-3322.4658203125
0.006	-0.0	-0.0	-0.0	-0.7803678512573242	22.460561752319336	-221.6210021972656	-3.1490814685821533	-20.490631103515625	-281.8511657714844	-0.0	-0.0	-0.0	-0.0	-0.0	-0.0	84993.6796875	17130.931640625	-3359.48095703125
0.006500000000000001	-0.0	-0.0	-0.0	-1.071131944656372	22.9729061126709	-222.6835479736328	-3.4823544025421143	-20.40230941772461	-283.3377380371094	-0.0	-0.0	-0.0	-0.0	-0.0	-0.0	84989.34375	17374.806640625	-3449.09423828125
0.007	-0.0	-0.0	-0.0	-1.3151744604110718	23.218923568725582	-221.27261352539065	-3.593240737915039	-20.313987731933597	-281.243408203125	-0.0	-0.0	-0.0	-0.0	-0.0	-0.0	84851.3359375	17454.556640625	-3463.424072265625
0.0075	-0.0	-0.0	-0.0	-1.381010890007019	23.464452743530277	-222.5904998779297	-4.013871192932129	-20.027233123779297	-280.5410461425781	-0.0	-0.0	-0.0	-0.0	-0.0	-0.0	84883.7890625	17606.189453125	-3479.0244140625
0.008	-0.0	-0.0	-0.0	-1.4493013620376587	23.28642463684082	-222.42237854003903	-4.080696105957031	-20.025840759277344	-280.0138244628906	-0.0	-0.0	-0.0	-0.0	-0.0	-0.0	84469.671875	17457.36328125	-3634.78759765625
0.0085	-0.0	-0.0	-0.0	-1.8970189094543457	22.97034072875977	-223.2962951660156	-4.102442741394043	-20.05073928833008	-279.0577392578125	-0.0	-0.0	-0.0	-0.0	-0.0	-0.0	84603.3671875	17601.951171875	-3493.2470703125
0.009000000000000001	-0.0	-0.0	-0.0	-1.7604546546936035	22.94817543029785	-223.1233367919922	-4.0136799812316895	-20.2021427154541	-278.54522705078125	-0.0	-0.0	-0.0	-0.0	-0.0	-0.0	84314.90625	17548.662109375	-3708.736083984375
0.0095	-0.0	-0.0	-0.0	-1.9341492652893064	23.12821578979492	-223.5540008544922	-3.970367670059204	-20.26871109008789	-278.53790283203125	-0.0	-0.0	-0.0	-0.0	-0.0	-0.0	84023.9375	17783.89453125	-3500.35107421875
0.01	-0.0	-0.0	-0.0	-2.143598794937134	22.88486671447754	-223.9917755126953	-4.145325660705566	-19.82948112487793	-277.0468444824219	-0.0	-0.0	-0.0	-0.0	-0.0	-0.0	83715.0	17802.2421875	-3559.616943359375
0.0105	-0.0	-0.0	-0.0	-1.978561520576477	22.906513214111328	-223.63717651367188	-3.793091535568237	-20.07040023803711	-278.3583679199219	-0.0	-0.0	-0.0	-0.0	-0.0	-0.0	83435.21875	17705.755859375	-3456.004150390625
0.011	-0.0	-0.0	-0.0	-2.2333288192749023	23.441295623779297	-225.69412231445312	-3.991985321044922	-20.05206298828125	-276.3594970703125	-0.0	-0.0	-0.0	-0.0	-0.0	-0.0	83747.109375	17662.197265625	-3478.624755859375
0.0115	-0.0	-0.0	-0.0	-2.3872005939483643	23.084774017333984	-224.97561645507807	-3.9673593044281006	-20.183130264282227	-277.3104553222656	-0.0	-0.0	-0.0	-0.0	-0.0	-0.0	83322.4609375	17751.95703125	-3583.0107421875
0.012	-0.0	-0.0	-0.0	-2.144639492034912	23.059803009033203	-225.42774963378903	-4.0381269454956055	-20.003084182739254	-275.4109191894531	-0.0	-0.0	-0.0	-0.0	-0.0	-0.0	83097.2109375	17777.666015625	-3425.239990234375
0.0125	-0.0	-0.0	-0.0	-2.0091795921325684	22.745681762695312	-224.26925659179688	-3.6120619773864746	-19.83014488220215	-276.095458984375	-0.0	-0.0	-0.0	-0.0	-0.0	-0.0	83019.25	17729.271484375	-3575.67724609375
0.013000000000000001	-0.0	-0.0	-0.0	-2.0476973056793213	23.059385299682617	-224.9920196533203	-3.991985321044922	-19.737842559814453	-275.3974304199219	-0.0	-0.0	-0.0	-0.0	-0.0	-0.0	82934.765625	17852.1640625	-3402.315185546875
